# xmcd CD database file
#
# Track frame offsets:
#	150
#	14897
#	33140
#	51893
#	66105
#	82951
#	100390
#	118273
#	132354
#	153456
#	167432
#	180501
#	197373
#	213977
#	231856
#
# Disc length: 3299 seconds
#
# Revision: 2
# Processed by: cddbd v1.5.2PL0 Copyright (c) Steve Scherf et al.
# Submitted via: CDex 1.70beta2
#
DISCID=c60ce10f
DTITLE=Sarah Brightman - A Winter Symphony (Barnes and Noble Exclusive)
DYEAR=2008
DGENRE=Pop
TTITLE0=Arrival
TTITLE1=Colder Than Winter
TTITLE2=Ave Maria (Duet with Fernando Lima)
TTITLE3=Silent Night
TTITLE4=In the Bleak Midwinter
TTITLE5=I've Been This Way Before
TTITLE6=Jesu, Joy of Man's Desiring
TTITLE7=Child in a Manger
TTITLE8=I Wish It Could Be Christmas Everyday
TTITLE9=Amazing Grace
TTITLE10=Ave Maria
TTITLE11=I Believe in Father Christmas
TTITLE12=When a Child Is Born
TTITLE13=Carpe Diem (Duet with Mario Frangoulis)
TTITLE14=Happy Christmas (War Is Over)
EXTD=YEAR: 2008
EXTT0=
EXTT1=
EXTT2=
EXTT3=
EXTT4=
EXTT5=
EXTT6=
EXTT7=
EXTT8=
EXTT9=
EXTT10=
EXTT11=
EXTT12=
EXTT13=
EXTT14=
PLAYORDER=
